<svg width="52" height="52" viewBox="0 0 52 52" fill="none" xmlns="http://www.w3.org/2000/svg">
    <path d="M3.8934 15.0861C2.84761 15.0861 2 15.9337 2 16.9795V35.2227C2 36.2685 2.84761 37.1161 3.8934 37.1161C4.93919 37.1161 5.78681 36.2685 5.78681 35.2227V16.9795C5.78681 15.9337 4.93919 15.0861 3.8934 15.0861Z" fill="#777777"/>
    <path d="M12.9359 9.61481C11.8901 9.61481 11.0425 10.4624 11.0425 11.5082V40.694C11.0425 41.7397 11.8901 42.5874 12.9359 42.5874C13.9817 42.5874 14.8293 41.7397 14.8293 40.694V11.5082C14.8293 10.4624 13.9817 9.61481 12.9359 9.61481Z" fill="#777777"/>
    <path d="M21.9789 2C20.9331 2 20.0854 2.84761 20.0854 3.8934V48.3086C20.0854 49.3544 20.9331 50.202 21.9789 50.202C23.0246 50.202 23.8723 49.3544 23.8723 48.3086V3.8934C23.8723 2.84782 23.0246 2 21.9789 2Z" fill="#777777"/>
    <path d="M31.0213 13.0374C29.9755 13.0374 29.1279 13.885 29.1279 14.9308V37.2715C29.1279 38.3173 29.9755 39.1649 31.0213 39.1649C32.0671 39.1649 32.9147 38.3173 32.9147 37.2715V14.9308C32.9147 13.885 32.0671 13.0374 31.0213 13.0374Z" fill="#777777"/>
    <path d="M40.0643 15.0861C39.0185 15.0861 38.1709 15.9337 38.1709 16.9795V35.2227C38.1709 36.2685 39.0185 37.1161 40.0643 37.1161C41.1101 37.1161 41.9577 36.2685 41.9577 35.2227V16.9795C41.9577 15.9337 41.1099 15.0861 40.0643 15.0861Z" fill="#777777"/>
    <path d="M49.1068 21.1492C48.061 21.1492 47.2134 21.9968 47.2134 23.0426V29.1598C47.2134 30.2056 48.061 31.0532 49.1068 31.0532C50.1526 31.0532 51.0002 30.2056 51.0002 29.1598V23.0426C51.0002 21.9968 50.1526 21.1492 49.1068 21.1492Z" fill="#777777"/>
</svg>
