<svg viewBox="0 0 158 158" fill="none" xmlns="http://www.w3.org/2000/svg">
<path d="M1.19717 1.92856C1.19717 15.0874 0.942537 28.2814 2.5293 41.3843C3.9944 53.4826 2.56736 65.5387 2.56736 77.6489C2.56736 101.529 1.19717 125.147 1.19717 149.017C1.19717 151.432 0.753535 154.02 1.19717 156.415C1.37794 157.391 20.7955 156.851 23.8434 156.851C34.9728 156.851 46.1734 156.415 57.3751 156.415C65.4047 156.415 73.0637 156.205 80.9728 155.303C86.8294 154.636 90.6054 153.804 96.692 153.804C102.576 153.804 106.815 154.765 112.183 155.642C114.79 156.068 118.267 156.415 120.937 156.415C125.897 156.415 130.858 156.415 135.819 156.415C140.5 156.415 145.182 156.415 149.863 156.415C154.123 156.415 152.723 153.961 153.631 151.653C154.412 149.669 154.659 147.558 154.659 145.512C154.659 133.315 155.344 121.121 155.344 108.885C155.344 100.866 155.344 92.8477 155.344 84.8292C155.344 81.459 154.717 77.7514 155.496 74.4092C156.431 70.401 155.918 66.4879 156.098 62.4178C156.403 55.5512 157.487 48.9915 156.745 42.158C156.155 36.7251 156.098 31.3228 156.098 25.8631C156.098 21.0532 156.784 15.9178 155.451 11.2606C154.721 8.71097 157.12 2.64733 152.071 2.64733C146.994 2.64733 142.314 1.77698 137.151 1.77698C130.158 1.77698 122.956 3.11398 116.141 2.26703C102.709 0.597724 88.9939 1.05821 75.3398 1.05821C60.4768 1.05821 45.5951 1.49339 30.8086 1.49339C25.6069 1.49339 20.4052 1.49339 15.2036 1.49339C11.7802 1.49339 2.89355 0.643822 1.19717 2.79891" stroke="#373737" stroke-linecap="round" stroke-linejoin="round"/>
</svg>
