<svg width="26" height="26" viewBox="0 0 26 26" fill="none" xmlns="http://www.w3.org/2000/svg">
  <path d="M24.9588 1.03093C24.3023 0.372796 23.2421 0.904675 22.448 1.38594C21.6305 1.88151 20.5546 2.68034 19.2499 3.76033C16.4687 6.06258 13.3052 9.07937 10.7483 11.6418L10.7459 11.6403C9.30906 13.0937 7.94244 14.5157 6.34478 16.3673C5.60722 16.2559 4.77092 16.3507 3.99504 16.6768L3.97727 16.6846C2.3803 17.4055 1.337 19.0081 1.31937 20.7673V20.7748C1.31937 22.7261 0.980359 24.295 0.645542 24.8363L0 25.8795L1.22177 25.9675C1.52154 25.989 1.83562 26.0001 2.15943 26.0001C4.53814 26.0001 7.43889 25.4014 9.00303 23.9635L9.00727 23.9595C9.81366 23.2064 10.2056 22.1647 10.2056 20.7747C10.2056 20.6086 10.1956 20.4437 10.1759 20.2775C12.0185 18.6807 13.4375 17.3192 14.9147 15.866L14.9119 15.8612C17.9295 12.8375 20.6192 9.65696 22.546 6.99845C23.5152 5.66121 24.2668 4.48154 24.7196 3.58703C25.1839 2.66985 25.5754 1.64884 24.9588 1.03093ZM7.99956 22.8719C6.94959 23.8351 4.64518 24.4858 2.35443 24.5163C2.63425 23.5316 2.80003 22.1932 2.80033 20.7787C2.81351 19.6004 3.51005 18.5275 4.57665 18.0418C5.21 17.778 5.8467 17.7377 6.52044 17.9252C6.60184 17.9252 7.28584 18.0969 7.8602 18.6725C9.08838 19.9032 8.91332 22.0162 7.99956 22.8719ZM9.70495 18.7191C9.49873 18.3171 9.23037 17.9466 8.9075 17.623C8.59914 17.314 8.25574 17.0595 7.88073 16.8603C8.84411 15.7625 9.88894 14.6339 10.9559 13.5397C11.344 13.8187 11.711 14.131 12.0516 14.4723L12.0588 14.4795C12.4188 14.8304 12.7452 15.2174 13.0336 15.6343C11.915 16.7218 10.8002 17.7543 9.70495 18.7191ZM20.9498 6.66753C19.0397 9.23184 16.5509 12.1041 14.0991 14.5762C13.7959 14.1627 13.4602 13.7755 13.0952 13.4192C12.7554 13.079 12.3925 12.7637 12.011 12.4758C14.743 9.74497 17.4434 7.22845 19.6314 5.37516C21.8536 3.49278 23.0328 2.72853 23.6294 2.41853C23.1139 3.6687 21.7579 5.5828 20.9498 6.66753Z" fill="white"/>
</svg>
