<svg width="16" height="16" viewBox="0 0 16 16" fill="none" xmlns="http://www.w3.org/2000/svg">
<path d="M11.0136 11.8943C11.6243 12.4541 11.6655 13.4029 11.1057 14.0136C10.5459 14.6243 9.59709 14.6655 8.98641 14.1057L11.0136 11.8943ZM4 7.5L2.98641 8.60573L1.78016 7.5L2.98641 6.39427L4 7.5ZM8.98641 0.894269C9.59709 0.33448 10.5459 0.375734 11.1057 0.986413C11.6655 1.59709 11.6243 2.54594 11.0136 3.10573L8.98641 0.894269ZM8.98641 14.1057L2.98641 8.60573L5.01359 6.39427L11.0136 11.8943L8.98641 14.1057ZM2.98641 6.39427L8.98641 0.894269L11.0136 3.10573L5.01359 8.60573L2.98641 6.39427Z" fill="#C0C0C0"/>
</svg>
