<svg width="20" height="22" viewBox="0 0 20 22" fill="none" xmlns="http://www.w3.org/2000/svg">
<path d="M19.2308 14.1426C18.8059 14.1426 18.4615 14.4944 18.4615 14.9283V19.6426C18.4615 20.0765 18.1171 20.4283 17.6923 20.4283H2.30773C1.88288 20.4283 1.53849 20.0765 1.53849 19.6426V14.9283C1.53849 14.4944 1.19409 14.1426 0.769245 14.1426C0.344396 14.1426 0 14.4944 0 14.9283V19.6426C0 20.9444 1.03319 21.9997 2.30769 21.9997H17.6923C18.9668 21.9997 20 20.9444 20 19.6426V14.9283C20 14.4944 19.6556 14.1426 19.2308 14.1426Z" fill="#373737"/>
<path d="M14.3731 13.5874C14.075 13.2933 13.6024 13.2933 13.3044 13.5874L10.7697 16.1747V0.785729C10.7697 0.351776 10.4253 0 10.0005 0C9.57564 0 9.23124 0.351776 9.23124 0.785729V16.1747L6.69815 13.5874C6.39256 13.2859 5.9056 13.2946 5.61047 13.6066C5.32255 13.9111 5.32255 14.3938 5.61047 14.6983L9.4566 18.6269C9.75665 18.9341 10.2437 18.9348 10.5445 18.6283C10.5449 18.6279 10.5454 18.6274 10.5459 18.6269L14.392 14.6983C14.6872 14.3862 14.6787 13.8888 14.3731 13.5874Z" fill="#373737"/>
</svg>
