<svg viewBox="0 0 22 22" fill="none" xmlns="http://www.w3.org/2000/svg">
<path transform="translate(1, 2)" d="M14.6875 0C13.6022 0 12.6072 0.350602 11.7302 1.04209C10.8894 1.70502 10.3296 2.54939 10 3.16338C9.67043 2.54935 9.11063 1.70502 8.2698 1.04209C7.39277 0.350602 6.39777 0 5.3125 0C2.28391 0 0 2.52546 0 5.87445C0 9.49253 2.84934 11.968 7.16285 15.7154C7.89535 16.3518 8.72563 17.0732 9.58859 17.8425C9.70234 17.9441 9.84844 18 10 18C10.1516 18 10.2977 17.9441 10.4114 17.8426C11.2745 17.0731 12.1047 16.3518 12.8376 15.715C17.1507 11.968 20 9.49253 20 5.87445C20 2.52546 17.7161 0 14.6875 0Z" stroke-width="1" stroke="rgba(0,0,0,.5)" />
</svg>
