<svg fill="#373737" xmlns="http://www.w3.org/2000/svg" viewBox="0 0 16 16">
  <g>
    <path
      d="M14.9 1.098a3.75 3.75 0 00-5.303 0L6.463 4.233c-1.515 1.514-1.375 3.928 0 5.303.23.23.485.418.754.572l.572-.572c.375-.375.243-.814.236-1.13a1.81 1.81 0 01-.236-.196c-.705-.705-.737-1.915 0-2.652l3.134-3.134a1.877 1.877 0 012.652 0c.73.731.73 1.92 0 2.652l-2.072 2.072c.06.331.42 1.116.235 2.411.009-.008.02-.014.028-.023l3.135-3.134a3.75 3.75 0 000-5.304z"/>
    <path
      d="M9.779 6.221a3.57 3.57 0 00-.754-.572l-.572.572c-.375.376-.243.814-.237 1.13.083.06.163.122.237.196.705.706.737 1.915 0 2.652l-3.377 3.377a1.877 1.877 0 01-2.652 0 1.877 1.877 0 010-2.652L4.74 8.61c-.06-.332-.42-1.117-.235-2.412-.009.009-.02.014-.029.023L1.098 9.6a3.75 3.75 0 005.304 5.303l3.377-3.377c1.486-1.487 1.405-3.898 0-5.304z"/>
  </g>
</svg>
