<svg viewBox="0 0 111 60" fill="none" xmlns="http://www.w3.org/2000/svg">
<path d="M58.542 29.77V5.45C59.796 4.724 61.182 4.46 62.634 4.46C63.294 4.46 60.624 4.13 60.624 3.47V1.49C60.624 0.83 60.294 0.5 59.634 0.5H50.226C49.698 0.5 49.368 0.698001 49.038 1.094L32.208 35.15L15.378 1.094C15.048 0.698001 14.718 0.5 14.19 0.5H1.782C1.122 0.5 0.792 0.83 0.792 1.49V3.47C0.792 4.13 1.122 4.46 1.782 4.46C3.234 4.46 4.62 4.724 5.874 5.45V49.77C5.874 53.334 4.224 56.04 0.99 56.04C0.33 56.04 0 56.37 0 57.03V59.01C0 59.67 0.33 60 0.99 60H17.292C17.886 60 18.282 59.67 18.282 59.01V57.03C18.282 56.37 17.886 56.04 17.292 56.04C14.058 56.04 12.474 53.334 12.474 49.77V14.756L27.984 46.304C28.248 46.766 28.644 47.03 29.172 47.03H35.244C35.772 47.03 36.168 46.766 36.366 46.304L51.942 14.756V29.77C51.942 33.334 50.358 36.04 47.124 36.04C46.53 36.04 46.134 36.37 46.134 37.03V39.01C46.134 39.67 46.53 40 47.124 40H63.426C64.086 40 64.416 39.67 64.416 39.01V37.03C64.416 36.37 64.086 36.04 63.426 36.04C60.192 36.04 58.542 33.334 58.542 29.77Z" fill="#373737"/>
<path d="M51.894 29.27V4.95C50.64 4.224 53.254 3.96 51.802 3.96C51.142 3.96 50.812 3.63 50.812 2.97V2.29981C50.812 1.6398 50.86 0.5 51.52 0.5H60.02C60.548 0.5 60.69 1.104 61.02 1.5L78.228 34.65L95.058 0.594C95.388 0.198001 95.718 0 96.246 0H108.654C109.314 0 109.644 0.33 109.644 0.990004V2.97C109.644 3.63 109.314 3.96 108.654 3.96C107.202 3.96 105.816 4.224 104.562 4.95V49.27C104.562 52.834 106.212 55.54 109.446 55.54C110.106 55.54 110.436 55.87 110.436 56.53V58.51C110.436 59.17 110.106 59.5 109.446 59.5H93.144C92.55 59.5 92.154 59.17 92.154 58.51V56.53C92.154 55.87 92.55 55.54 93.144 55.54C96.378 55.54 97.962 52.834 97.962 49.27V14.256L82.452 45.804C82.188 46.266 81.792 46.53 81.264 46.53H75.192C74.664 46.53 74.268 46.266 74.07 45.804L58.494 14.256V29.27C58.494 32.834 60.078 35.54 63.312 35.54C63.906 35.54 64.302 35.87 64.302 36.53V38.51C64.302 39.17 63.906 39.5 63.312 39.5H47.01C46.35 39.5 46.02 39.17 46.02 38.51V36.53C46.02 35.87 46.35 35.54 47.01 35.54C50.244 35.54 51.894 32.834 51.894 29.27Z" fill="#373737"/>
<circle cx="56.02" cy="52" r="7" fill="#373737"/>
</svg>
