<svg width="52" height="52" viewBox="0 0 52 52" fill="none" xmlns="http://www.w3.org/2000/svg">
    <path d="M47.6353 6H3.36466C1.50948 6 0 7.50948 0 9.36466V42.9926C0 44.848 1.50948 46.3573 3.36466 46.3573H47.6353C49.4905 46.3573 51 44.848 51 42.9926V9.36466C51 7.50948 49.4907 6 47.6353 6ZM3.36466 8.884H47.6353C47.8959 8.884 48.116 9.10414 48.116 9.36466V31.7587L40.4046 21.862C39.8324 21.1277 38.9949 20.6876 38.1066 20.6549C37.2185 20.6217 36.3508 20.9993 35.726 21.6897L25.7206 32.7473C25.4797 33.0134 24.9452 33.0869 24.6412 32.8958L16.4145 27.7149C15.0049 26.8269 12.9416 26.9184 11.616 27.9274L2.884 34.5729V9.36466C2.884 9.10414 3.10414 8.884 3.36466 8.884ZM47.6353 43.4733H3.36466C3.10414 43.4733 2.884 43.2531 2.884 42.9926V38.1971L13.3627 30.2223C13.7267 29.9454 14.4913 29.9116 14.878 30.1552L23.1047 35.336C24.5916 36.2725 26.68 35.9853 27.8592 34.6823L37.8646 23.6247C37.9245 23.5583 37.9674 23.5382 38.0007 23.5368C38.0259 23.5378 38.0747 23.5639 38.1297 23.6345L48.116 36.4506V42.9924C48.116 43.2531 47.8959 43.4733 47.6353 43.4733Z" fill="#777777"/>
    <path d="M21.3114 25.524C24.1279 25.524 26.4191 23.2328 26.4191 20.4163C26.4191 17.5998 24.1277 15.3085 21.3114 15.3085C18.4949 15.3085 16.2036 17.6 16.2036 20.4163C16.2036 23.2326 18.4949 25.524 21.3114 25.524ZM21.3114 18.1923C22.5376 18.1923 23.5351 19.1898 23.5351 20.4161C23.5351 21.6424 22.5376 22.6398 21.3114 22.6398C20.0851 22.6398 19.0876 21.6424 19.0876 20.4161C19.0876 19.19 20.0851 18.1923 21.3114 18.1923Z" fill="#777777"/>
</svg>
