<svg viewBox="0 0 338 87" fill="none" xmlns="http://www.w3.org/2000/svg">
<path d="M4.21575 3.55502C9.63733 2.728 14.3981 1.84823 19.8614 1.84823C23.138 1.84823 26.4146 1.84823 29.6912 1.84823C37.4954 1.84823 45.4356 1.2793 53.1123 1.2793C66.9596 1.2793 80.5857 2.41716 94.3914 2.41716C99.8384 2.41716 105.285 2.41716 110.732 2.41716C116.379 2.41716 121.99 3.55502 127.674 3.55502C135.632 3.55502 143.526 2.41716 151.569 2.41716C160.12 2.41716 168.702 2.16808 177.171 2.41716C183.041 2.5898 188.934 2.41716 194.808 2.41716C202.147 2.41716 209.705 4.25569 217.028 3.52342C235.093 1.7169 253.883 1.84823 272.056 1.84823C276.081 1.84823 280.105 1.84823 284.13 1.84823C288.681 1.84823 294.54 0.915399 298.922 2.13269C305.684 4.01085 313.813 2.98609 320.795 2.98609C324.219 2.98609 327.643 2.98609 331.067 2.98609C331.624 2.98609 333.983 2.66687 334.164 3.30216C334.777 5.44778 334.005 8.18455 334.228 10.4138C334.492 13.0558 334.765 15.5472 334.765 18.2208C334.765 19.1016 334.341 21.4463 334.891 22.2033C336.949 25.0328 335.42 30.5592 336.029 33.8348C337.34 40.8809 336.472 48.6813 336.472 55.8651C336.472 63.304 337.041 70.6335 337.041 78.0851C337.041 79.6639 335.098 83.7744 333.596 83.7744C330.416 83.7744 326.494 83.7791 323.386 84.4697C319.231 85.3932 314.815 84.9823 310.585 85.7656C304.329 86.9242 297.28 85.0501 290.926 85.0501C279.741 85.0501 267.95 86.2173 256.948 84.2169C247.36 82.4735 237.833 83.0676 228.09 83.0676C224.028 83.0676 220.068 83.4008 216.111 84.3319C212.772 85.1175 209.611 83.9428 206.186 84.4697C198.27 85.6877 189.741 84.9122 181.722 84.9122C158.224 84.9122 134.753 84.3433 111.206 84.3433C98.5727 84.3433 85.8939 83.7744 73.3093 83.7744C67.3526 83.7744 61.9288 81.4986 55.9885 81.4986C52.5328 81.4986 49.0771 81.4986 45.6213 81.4986C42.9144 81.4986 40.4263 82.5631 37.7827 82.6365C31.0622 82.8232 24.3086 82.6365 17.5856 82.6365C14.2669 82.6365 10.9481 82.6365 7.62934 82.6365C5.63573 82.6365 3.88883 83.6026 3.20432 81.6251C2.68183 80.1157 2.50896 79.1591 2.50896 77.5161C2.50896 74.1025 2.50896 70.6889 2.50896 67.2754C2.50896 63.9234 3.64682 60.7208 3.64682 57.3191C3.64682 51.4682 3.28851 45.527 3.07789 39.8402C2.83005 33.1485 1.37109 27.1418 1.37109 20.3385C1.37109 14.8051 3.07789 10.1358 3.07789 4.69289" stroke="#373737" stroke-linecap="round" stroke-linejoin="round"/>
</svg>
