<svg width="18" height="22" viewBox="0 0 18 22" fill="none" xmlns="http://www.w3.org/2000/svg">
<path d="M17.9442 4.9174L17.4575 3.46133C17.2723 2.90677 16.7542 2.53415 16.1687 2.53415H12.079V1.20497C12.079 0.540634 11.5379 0 10.8726 0H7.1274C6.46223 0 5.92098 0.540634 5.92098 1.20497V2.53415H1.83143C1.24579 2.53415 0.727743 2.90677 0.54245 3.46133L0.0558469 4.9174C-0.0549588 5.2489 0.00120068 5.61598 0.20583 5.89948C0.410459 6.18297 0.74153 6.35233 1.0916 6.35233H1.60023L2.71972 20.1713C2.80295 21.1967 3.6746 22 4.70447 22H13.5227C14.5524 22 15.4242 21.1967 15.5073 20.1711L16.6268 6.35233H16.9084C17.2585 6.35233 17.5895 6.18297 17.7942 5.89964C17.9988 5.61615 18.055 5.2489 17.9442 4.9174V4.9174ZM7.21231 1.28906H10.7877V2.53415H7.21231V1.28906ZM14.2201 20.0672C14.1909 20.4283 13.8845 20.7109 13.5227 20.7109H4.70447C4.34263 20.7109 4.03628 20.4283 4.00702 20.0672L2.89577 6.35233H15.3312L14.2201 20.0672ZM1.36853 5.06326L1.76753 3.8692C1.77661 3.84167 1.80234 3.82321 1.83143 3.82321H16.1687C16.1978 3.82321 16.2234 3.84167 16.2326 3.8692L16.6316 5.06326H1.36853Z" fill="#373737"/>
<path d="M12.1752 20.0696C12.1857 20.0703 12.196 20.0704 12.2065 20.0704C12.5197 20.0704 12.7815 19.8031 12.7978 19.4584L13.3544 7.81997C13.3714 7.46387 13.1201 7.16005 12.7933 7.14156C12.4656 7.12256 12.1877 7.39661 12.1705 7.75272L11.6141 19.3912C11.5971 19.7473 11.8482 20.0511 12.1752 20.0696V20.0696Z" fill="#373737"/>
<path d="M5.22149 19.46C5.23852 19.8041 5.49609 20.0704 5.80399 20.0704C5.81463 20.0704 5.82558 20.0701 5.83637 20.0694C6.15826 20.0501 6.40503 19.7458 6.38755 19.3897L5.81326 7.75109C5.79578 7.39499 5.52057 7.12211 5.19853 7.14161C4.87665 7.16094 4.62987 7.46527 4.64736 7.82137L5.22149 19.46Z" fill="#373737"/>
<path d="M9.00164 20.0704C9.37581 20.0704 9.67906 19.7814 9.67906 19.4248V7.78626C9.67906 7.42965 9.37581 7.14062 9.00164 7.14062C8.62747 7.14062 8.32422 7.42965 8.32422 7.78626V19.4248C8.32422 19.7814 8.62747 20.0704 9.00164 20.0704Z" fill="#373737"/>
</svg>
