<svg width="31" height="18" viewBox="0 0 31 18" fill="none" xmlns="http://www.w3.org/2000/svg">
<path d="M15.0983 0C9.32893 0 4.09695 3.15649 0.236273 8.28346C-0.0787577 8.7035 -0.0787577 9.29032 0.236273 9.71036C4.09695 14.8435 9.32893 18 15.0983 18C20.8677 18 26.0997 14.8435 29.9604 9.71654C30.2754 9.2965 30.2754 8.70968 29.9604 8.28964C26.0997 3.15649 20.8677 0 15.0983 0ZM15.5122 15.3377C11.6824 15.5786 8.51973 12.4221 8.76064 8.58614C8.9583 5.42347 11.5218 2.85999 14.6845 2.66232C18.5142 2.42141 21.6769 5.5779 21.436 9.41386C21.2322 12.5703 18.6687 15.1338 15.5122 15.3377ZM15.3207 12.4097C13.2575 12.5395 11.5527 10.8408 11.6886 8.77763C11.7936 7.07275 13.1772 5.69526 14.8821 5.58408C16.9453 5.45436 18.6501 7.15306 18.5142 9.2162C18.4031 10.9272 17.0194 12.3047 15.3207 12.4097Z" fill="#373737"/>
</svg>
