<svg fill="none" xmlns="http://www.w3.org/2000/svg" viewBox="0 0 18 17">
  <path
    d="M0 8.002h3.532c.033-1.247.185-2.422.44-3.486H1.033C.471 5.566.073 6.748 0 8.002zM3.532 8.998H0c.074 1.254.471 2.436 1.033 3.486h2.939a16.99 16.99 0 01-.44-3.486zM8.001 8.002V4.516h-3a15.898 15.898 0 00-.474 3.486h3.474zM8 3.52V0C6.91.305 5.945 1.698 5.308 3.52H8zM8 17v-3.52H5.308C5.944 15.302 6.91 16.695 8 17zM8.998 0v3.52h2.694C11.055 1.697 10.09.304 8.998 0zM12.472 8.002a15.898 15.898 0 00-.474-3.486h-3v3.486h3.474zM8.001 8.998H4.527a15.9 15.9 0 00.474 3.486h3V8.998zM12.75 3.52h2.581C14.301 2.11 12.85.917 11.158.356c.65.767 1.194 1.92 1.592 3.162zM4.251 13.48H1.67c1.03 1.41 2.482 2.602 4.173 3.163-.65-.767-1.193-1.92-1.592-3.163zM4.251 3.52c.399-1.243.942-2.396 1.592-3.163C4.153.917 2.7 2.109 1.67 3.519H4.25zM12.75 13.48c-.399 1.242-.942 2.396-1.592 3.163 1.691-.561 3.142-1.753 4.173-3.163H12.75zM8.998 8.998v3.486h3c.273-1.055.438-2.24.474-3.486H8.998zM13.03 4.516c.254 1.064.406 2.239.439 3.486H17c-.074-1.254-.471-2.437-1.033-3.486h-2.939zM8.998 13.48V17c1.09-.305 2.057-1.698 2.694-3.52H8.998zM17.001 8.998h-3.532a16.988 16.988 0 01-.44 3.486h2.939c.562-1.05.96-2.232 1.033-3.486z"
    fill="#373737"/>
</svg>
