<svg width="184" height="160" viewBox="0 0 184 160" fill="none" xmlns="http://www.w3.org/2000/svg">
<path opacity="0.7" d="M94.499 159.943C79.4395 159.943 64.38 159.943 49.3238 159.943C46.8819 159.943 46.5363 159.394 47.5335 157.099C48.3529 155.207 49.7812 153.981 51.769 153.518C54.8065 152.81 57.8606 152.165 60.9146 151.53C62.3758 151.226 63.5605 150.531 64.4557 149.324C65.0349 148.544 64.9131 148.091 63.9324 147.793C59.019 146.305 59.1276 146.318 60.2992 141.268C62.073 133.612 63.6658 125.91 65.3706 118.238C66.6244 112.602 67.8684 106.967 69.2375 101.362C70.7941 95.0056 76.1123 90.8519 82.6548 90.8221C91.1981 90.7824 99.7415 90.7659 108.282 90.8486C109.914 90.8651 110.562 90.3029 110.658 88.7453C110.904 84.6313 112.007 85.2299 107.482 84.2543C104.431 83.5962 101.413 82.7959 98.356 82.1775C96.8224 81.8666 95.8812 81.0762 95.5225 79.588C95.2921 78.6389 94.8182 78.0436 93.8046 77.865C91.0072 77.3756 89.059 75.7518 87.792 73.2318C87.4464 72.5473 87.0416 71.8859 86.6138 71.2476C85.5179 69.6172 84.1456 69.7098 83.2702 71.4692C81.4108 75.2095 79.5941 78.9663 77.7117 82.6934C74.5721 88.9139 66.7659 90.1475 61.8328 85.22C61.1219 84.5122 60.4703 83.7219 59.3152 84.0393C58.058 84.3833 57.9823 85.4944 57.775 86.5196C54.4083 103.058 51.0877 119.604 47.6289 136.122C46.7437 140.342 46.2928 144.711 43.9463 148.54C39.5726 155.68 33.3494 159.589 24.9574 159.963C19.3233 160.214 14.038 159.226 9.4306 155.756C2.63145 150.637 -0.712178 143.719 0.12702 135.272C0.953054 126.945 5.25436 120.582 12.9585 117.004C20.7384 113.39 28.4919 113.816 35.9591 118.023C38.7071 119.57 40.9318 121.809 42.7451 124.402C43.7192 125.791 44.9073 126.654 46.6021 126.297C48.3464 125.93 49.202 124.65 49.5509 122.93C52.0783 110.43 54.6387 97.9356 57.1662 85.4316C58.6142 78.2652 60.0556 71.0988 61.4411 63.9224C62.2968 59.491 61.7077 55.1488 60.2564 50.9257C58.239 45.0655 60.4604 39.0599 65.8938 36.1431C67.0193 35.5379 67.5558 34.8004 67.7993 33.5272C68.5233 29.7505 69.1618 25.9242 70.2971 22.2633C73.338 12.4612 79.7982 5.7445 89.3091 2.00751C92.916 0.592086 96.6644 -0.00980065 100.554 0.000120556C120.103 0.0431124 139.651 0.00342762 159.199 0.0265771C173.384 0.0431124 184.652 11.7898 183.971 26.0069C183.76 30.402 182.43 34.6582 181.565 38.964C177.912 57.1793 174.167 75.3781 170.468 93.5868C167.295 109.209 164.123 124.835 160.98 140.465C159.252 149.066 154.668 155.333 146.407 158.597C143.946 159.569 141.346 159.963 138.69 159.96C123.96 159.95 109.229 159.956 94.499 159.956C94.499 159.953 94.499 159.95 94.499 159.943ZM136.541 114.372C136.627 114.448 136.693 114.55 136.785 114.573C136.939 114.616 137.107 114.63 137.272 114.63C145.581 114.712 152.381 117.775 157.218 124.763C158.186 126.161 159.621 126.423 161.171 126.095C162.731 125.765 163.32 124.587 163.616 123.132C167.17 105.677 170.744 88.2261 174.308 70.7747C176.112 61.9415 177.974 53.1182 179.676 44.2652C180.647 39.212 177.458 35.4783 172.357 35.4519C167.262 35.4221 162.171 35.4453 157.077 35.4453C152.749 35.4453 148.425 35.4354 144.097 35.4552C143.482 35.4585 142.669 35.2204 142.432 36.1034C142.014 37.661 141.534 39.083 142.58 40.7829C145.002 44.7051 147.247 48.7628 147.79 53.4953C148.254 57.52 147.773 61.5248 147.474 65.5164C146.7 75.8279 146.417 86.1592 146.052 96.4838C145.924 100.128 145.539 103.449 143.432 106.58C141.695 109.16 139.934 111.62 137.417 113.476C137.091 113.717 136.62 113.859 136.541 114.372ZM83.4084 109.226C84.0139 108.905 84.5405 109.143 85.0605 109.246C95.0551 111.204 105.04 113.194 115.041 115.109C119.372 115.936 123.631 117.434 128.166 116.558C133.556 115.516 138.002 112.999 141.234 108.462C141.836 107.615 141.849 107.159 140.665 106.951C137.377 106.375 134.705 104.543 132.115 102.575C129.627 100.687 127.205 98.6963 124.638 96.9204C119.619 93.4513 114.202 91.338 107.913 91.5166C99.9784 91.7415 92.034 91.5662 84.0929 91.5728C75.9905 91.5795 71.166 95.5347 69.4448 103.429C66.6705 116.161 63.8271 128.877 61.0232 141.602C60.8784 142.257 60.5954 142.925 60.8126 143.669C65.647 142.32 70.4222 142.158 75.1744 143.441C76.4151 143.775 76.7804 143.514 77.0897 142.35C79.6698 132.683 82.3092 123.03 84.9222 113.373C85.1526 112.526 85.5376 111.66 85.508 110.817C85.4652 109.616 83.9547 110.317 83.4775 109.537C83.4512 109.494 83.4545 109.438 83.4084 109.226ZM88.8352 110.866C88.8286 111.534 89.2268 111.878 89.4934 112.278C96.954 123.47 104.408 134.667 111.918 145.825C112.645 146.907 112.731 147.538 111.612 148.382C108.637 150.624 105.734 152.969 102.825 155.293C101.561 156.302 101.338 157.42 102.124 158.409C102.753 159.202 103.654 159.173 104.53 159.173C112.576 159.176 120.626 159.179 128.672 159.166C128.923 159.166 129.301 159.341 129.482 158.872C127.353 158.121 125.424 157.076 123.647 155.793C111.967 147.356 111.043 130.583 121.686 120.596C123.137 119.233 122.982 118.135 121.166 117.292C120.58 117.021 119.918 116.882 119.277 116.756C113.692 115.658 108.107 114.574 102.522 113.492C97.9709 112.612 93.4195 111.746 88.8352 110.866ZM113.876 35.442C110.865 35.442 107.831 35.6669 104.849 35.3791C101.812 35.0848 100.028 36.0505 99.1656 39.0467C98.8694 40.0785 98.8365 40.7234 99.5539 41.5402C102.891 45.3268 106.185 49.1531 109.46 52.9926C110.151 53.7995 110.733 53.7797 111.549 53.1844C115.311 50.4362 119.106 47.7277 122.89 45.0126C123.446 44.6125 123.848 44.0866 124.078 43.4682C124.904 41.269 125.638 39.0334 126.517 36.8574C126.978 35.7165 126.701 35.4188 125.536 35.4287C121.653 35.4717 117.766 35.4453 113.876 35.442ZM80.7394 132.041C79.4428 136.777 78.3205 141.017 77.116 145.233C76.5401 147.247 76.3789 149.199 77.1358 151.206C77.6261 152.502 77.6031 153.898 77.6163 155.277C77.6558 159.685 77.0173 159.067 81.4075 159.202C83.2932 159.262 84.7741 159.183 85.3533 156.878C85.6693 155.624 86.8672 154.754 88.0355 154.093C89.5164 153.253 91.0369 152.512 92.7185 152.152C93.2945 152.029 94.0218 152 94.2982 151.401C95.2789 149.275 96.6414 147.261 96.5789 144.777C96.5328 142.991 96.1609 142.779 94.5747 143.507C90.1351 145.544 89.1116 145.237 86.6138 141.113C86.5578 141.02 86.5052 140.921 86.4427 140.832C84.6326 138.04 82.8193 135.246 80.7394 132.041ZM111.665 73.966C112.471 74.0421 113.063 73.8172 113.294 72.9474C113.939 70.5035 114.597 68.0662 115.255 65.6256C115.469 64.8286 115.301 64.4648 114.383 64.7327C113.017 65.1262 111.635 65.4668 110.256 65.8075C107.65 66.4557 105.698 65.6553 104.165 63.4264C101.176 59.0908 98.1421 54.7883 95.1605 50.4494C94.4693 49.4474 94.0481 49.4342 93.5215 50.5751C92.4191 52.9694 91.3725 55.4034 90.0529 57.6754C89.2104 59.1239 89.1807 60.073 90.5202 61.1577C92.7416 62.9568 93.7618 65.3279 93.6795 68.2448C93.6269 70.1794 94.5417 71.1352 96.4472 71.5485C97.1416 71.6974 97.8525 71.7536 98.5567 71.866C102.917 72.5638 107.291 73.2649 111.665 73.966ZM87.0976 110.559C86.6533 110.499 86.4854 110.747 86.1596 111.901C84.6359 117.295 84.1587 122.811 84.4878 128.377C84.7445 132.663 85.4587 136.89 87.453 140.785C87.8907 141.642 88.1967 142.102 88.9471 140.944C91.6885 136.714 95.6442 134.062 100.387 132.633C101.739 132.227 101.637 131.783 100.999 130.881C100.084 129.581 99.1952 128.261 98.3099 126.939C94.8314 121.747 91.3594 116.548 87.8874 111.352C87.6801 111.032 87.5024 110.678 87.0976 110.559ZM132.951 30.7559C133.086 30.951 133.221 31.1428 133.355 31.3379C132.549 32.0522 131.73 32.7533 130.95 33.4941C130.729 33.7058 130.45 34.0728 130.496 34.3043C130.591 34.7772 131.101 34.6648 131.463 34.6681C134.142 34.6813 136.821 34.6648 139.5 34.678C140.75 34.6847 141.168 34.2977 140.346 33.1403C139.315 31.6884 139.394 30.1738 140.165 28.6261C140.754 27.4422 141.432 26.3178 142.277 25.3025C142.932 24.5154 143.268 23.6159 142.541 22.7726C141.757 21.8631 140.875 22.2898 140.066 22.885C139.533 23.2753 138.96 23.7085 138.266 23.3778C137.463 22.9942 137.627 22.1872 137.594 21.4895C137.578 21.1621 137.581 20.8313 137.584 20.5006C137.601 17.144 134.912 16.3833 132.585 15.3846C130.772 14.6041 130.423 16.5685 129.462 17.3655C129.044 17.7128 128.695 18.1493 128.333 18.5594C126.359 20.8115 124.733 23.2653 124.114 26.2615C123.476 29.3603 125.023 31.285 128.143 31.4503C129.798 31.5297 131.355 31.0237 132.951 30.7559ZM88.9603 69.1575C88.0947 69.2071 87.8084 68.6813 87.4398 68.3407C86.9923 67.9273 86.5677 67.5007 85.8997 67.5007C84.3134 67.5007 82.7271 67.4842 81.1409 67.5007C80.5716 67.5073 79.9693 67.6197 80.0088 68.3704C80.0417 69.0352 80.6308 69.0352 81.1212 69.0749C81.3943 69.098 81.674 69.1245 81.9406 69.0848C85.2217 68.6218 87.3773 69.9644 88.6542 73.0367C89.342 74.6902 90.5136 76.0462 92.3401 76.5687C94.1797 77.0978 96.0391 77.5575 97.8952 78.037C98.3132 78.1461 98.7509 78.2916 99.0899 77.832C100.136 76.4132 98.82 72.9375 97.0692 72.501C93.5512 71.6213 92.7251 70.5862 92.656 66.879C92.633 65.6983 92.5079 64.5607 91.6951 63.6347C89.7073 61.3661 87.5649 59.2496 85.3435 57.2124C84.8992 56.8056 84.3693 56.2633 83.8099 56.9181C83.2735 57.5497 83.879 58.0359 84.2904 58.4525C85.949 60.1325 87.634 61.7795 89.2861 63.4628C89.6283 63.81 90.2141 64.0779 90.02 64.898C89.1281 64.5938 88.6674 63.8861 88.1046 63.3371C87.453 62.7021 86.7783 62.2259 85.8108 62.2391C84.06 62.2656 82.3092 62.2358 80.5584 62.2491C79.8805 62.2524 79.1038 62.335 79.0709 63.185C79.0314 64.1308 79.8838 64.0713 80.5189 64.0812C82.3783 64.1142 84.241 64.0646 86.1004 64.1176C87.7196 64.1638 89.1149 65.3445 89.3782 66.8095C88.6279 66.7401 88.3021 66.0952 87.8413 65.662C87.295 65.1494 86.7158 64.8319 85.9457 64.8451C84.3035 64.8716 82.6613 64.8484 81.0191 64.8583C80.4037 64.8616 79.7028 64.8914 79.6698 65.7083C79.6303 66.6441 80.407 66.6772 81.0685 66.6871C82.5988 66.7169 84.1324 66.7136 85.666 66.7103C87.2884 66.7169 88.1276 67.7454 88.9603 69.1575ZM83.9086 47.6947C85.2875 45.0887 86.6302 42.4629 88.0585 39.8834C89.4012 37.456 88.2593 35.4585 85.4587 35.4453C84.0962 35.4387 82.7337 35.4486 81.3713 35.4552C80.6868 35.4585 80.045 35.5809 79.7258 36.2853C79.4197 36.9632 79.6106 37.5883 80.0878 38.1042C82.5659 40.7961 83.8724 43.9312 83.9086 47.6947ZM62.3824 159.176C66.6475 159.176 70.9126 159.183 75.181 159.169C75.8622 159.166 76.7409 159.321 76.7738 158.247C76.8067 157.165 75.9445 157.258 75.2501 157.258C66.7725 157.248 58.295 157.251 49.8207 157.255C49.0309 157.255 48.1324 157.284 48.1292 158.336C48.1259 159.447 49.1132 159.159 49.7516 159.166C53.9608 159.189 58.1699 159.176 62.3824 159.176ZM91.0796 159.176C91.8464 159.176 92.6132 159.209 93.38 159.169C94.7721 159.097 96.2037 159.46 97.4806 158.448C101.858 154.969 106.281 151.547 110.681 148.094C111.243 147.651 111.898 147.214 111.273 146.351C110.608 145.428 110.042 146.057 109.493 146.483C105.076 149.913 100.65 153.329 96.2695 156.805C95.3513 157.532 94.4233 157.893 93.2681 157.87C91.1882 157.83 89.1084 157.853 87.0285 157.876C86.5019 157.883 85.7516 157.817 85.7252 158.538C85.6956 159.348 86.4821 159.149 86.9791 159.163C88.3416 159.196 89.7106 159.173 91.0796 159.176ZM95.0979 138.318C95.1605 138.537 95.325 139.168 95.5257 139.787C95.9733 141.172 96.6743 141.447 97.9084 140.498C99.465 139.3 101.14 138.265 102.736 137.121C103.345 136.685 104.431 136.413 103.865 135.299C103.325 134.237 102.782 133.067 101.226 133.298C99.4124 133.569 97.7504 134.214 96.2893 135.332C95.4599 135.97 95.0025 136.807 95.0979 138.318ZM71.1429 147.267C71.1429 147.264 71.1429 147.261 71.1429 147.254C72.3408 147.254 73.5388 147.244 74.7334 147.257C75.7667 147.27 75.9477 146.52 76.1123 145.746C76.2834 144.939 75.8622 144.526 75.1579 144.284C73.4269 143.689 71.6497 143.481 69.8496 143.775C68.5365 143.99 67.6216 144.833 66.9568 145.981C66.4237 146.907 66.6968 147.28 67.7137 147.27C68.8557 147.257 69.9977 147.267 71.1429 147.267ZM126.336 42.744C126.168 42.6811 125.997 42.6183 125.829 42.5555C120.307 52.4171 116.69 62.9766 114.498 74.0586C115.772 70.5961 116.805 67.0509 117.783 63.4859C118.79 59.8184 120.172 56.2831 121.649 52.7942C123.094 49.3945 124.766 46.0907 126.336 42.744ZM62.4482 55.0099C62.5634 57.477 63.0438 59.9044 62.5831 62.3714C61.6945 67.1204 60.8191 71.8759 59.9898 76.6348C59.1868 81.2515 61.7669 85.6499 65.8181 86.6883C65.8181 86.642 65.8379 86.5659 65.8148 86.5527C65.4133 86.2716 64.9987 86.0104 64.6005 85.7226C61.5201 83.5135 60.105 80.5702 60.7073 76.7539C61.0001 74.9085 61.3654 73.0764 61.6386 71.2311C62.2803 66.9517 63.7152 62.7848 63.3795 58.3666C63.2907 57.1793 63.1821 56.0152 62.4482 55.0099ZM89.5131 39.8437C89.3848 39.7742 89.2532 39.7081 89.1248 39.6386C82.6778 51.8153 76.2275 63.9919 69.7805 76.1685C69.968 76.2677 70.1589 76.3669 70.3465 76.4661C76.7376 64.2598 83.1254 52.0534 89.5131 39.8437ZM133.323 53.0521C133.119 52.9165 132.911 52.7809 132.707 52.6486C128.462 60.0201 124.216 67.3915 119.971 74.763C120.175 74.8821 120.379 75.0011 120.583 75.1202C124.829 67.7619 129.074 60.407 133.323 53.0521ZM61.609 51.4118C60.6809 47.1622 60.7797 43.1408 63.8633 39.6882C66.9667 36.2158 70.8632 35.4519 75.2534 36.2026C70.8632 34.5954 65.9202 35.8983 63.1755 39.3046C60.2235 42.9755 59.4995 48.1411 61.609 51.4118ZM148.168 10.9994C144.864 8.29755 127.876 7.47079 124.812 9.88164C128.906 9.48479 132.727 8.787 136.6 9.07802C140.51 9.36904 144.403 9.7692 148.168 10.9994ZM111.872 10.2123C109.861 9.99739 108.015 10.4934 106.215 11.4591C103.161 13.0961 101.752 16.0262 100.271 18.8967C99.6197 20.16 98.7739 21.3605 98.3988 23.2554C99.4453 22.2567 99.8534 21.3572 100.242 20.4841C102.565 15.2788 105.675 11.0027 111.872 10.2123ZM97.4806 25.2496C96.2498 25.2628 94.3772 24.8693 93.3636 26.8601C93.1398 27.2967 92.5277 27.8258 93.1826 28.2789C93.6663 28.6129 94.2916 28.3748 94.6076 27.8589C95.2592 26.8006 96.2563 26.7576 97.3226 26.7609C98.2968 26.7642 99.2906 26.9097 100.238 26.5592C100.597 26.4269 100.979 26.2186 100.956 25.7688C100.93 25.2297 100.452 25.2694 100.09 25.2595C99.3861 25.2331 98.6752 25.2496 97.4806 25.2496ZM100.393 43.7989C100.587 45.5517 110.292 56.5014 111.698 56.8023C107.834 52.3609 104.112 48.0783 100.393 43.7989ZM94.3081 29.4562C94.3081 29.4529 94.3081 29.4463 94.3081 29.4429C93.3833 29.4429 92.4553 29.4264 91.5305 29.4496C91.0928 29.4595 90.6025 29.5256 90.5465 30.0911C90.4906 30.6401 90.9118 30.9212 91.3594 30.9278C93.3175 30.9609 95.2756 30.951 97.2338 30.9146C97.6254 30.908 97.9874 30.6203 97.994 30.187C98.0038 29.6116 97.5332 29.4793 97.0857 29.4661C96.1576 29.4363 95.2329 29.4562 94.3081 29.4562ZM92.3532 33.3486C92.3532 33.342 92.3532 33.3387 92.3532 33.3321C93.2747 33.3321 94.1962 33.3486 95.1177 33.3221C95.4599 33.3122 95.7462 33.1204 95.8022 32.7434C95.868 32.2903 95.6179 31.9497 95.2164 31.9001C93.3833 31.6851 91.5404 31.6818 89.7073 31.9001C89.3157 31.9464 89.0162 32.2506 89.0853 32.7169C89.1511 33.1832 89.523 33.3288 89.9179 33.3387C90.7275 33.3684 91.5404 33.3486 92.3532 33.3486Z" fill="#373737"/>
</svg>
