<svg viewBox="0 0 327 52" fill="none" xmlns="http://www.w3.org/2000/svg">
<path d="M4.66504 3.58313C16.0643 3.58313 28.6412 2.88091 39.8574 3.9018C46.1765 4.47696 52.2438 4.40255 58.6812 4.40255C84.7989 4.40255 110.512 3.17342 136.636 3.17342C143.943 3.17342 151.241 2.76371 158.427 2.76371C169.696 2.76371 180.846 1.94429 192.034 1.94429C210.973 1.94429 229.328 1.81755 248.147 1.14763C257.089 0.829301 266.334 1.12487 275.309 1.12487C282.81 1.12487 289.318 2.59466 296.537 2.76371C303.17 2.91906 309.622 3.17342 316.332 3.17342C318.46 3.17342 319.555 2.9957 319.555 4.08389C319.555 6.29081 321.251 8.30059 322.112 10.4572C324.606 16.6983 326 23.4474 326 29.8046C326 35.3822 325.855 40.3247 323.442 45.6922C323.054 46.5555 323.161 48.3369 321.294 48.8561C317.693 49.8575 308.411 49.061 304.312 49.061C294.627 49.061 284.942 49.061 275.258 49.061C265.023 49.061 254.008 49.2154 243.85 49.7893C230.882 50.5222 217.478 49.7359 204.515 50.495C183.678 51.715 160.671 50.4693 140.012 49.4479C133.602 49.131 118.724 50.1064 112.851 49.061C109.048 48.3841 102.657 48.9699 98.5793 48.9699C94.2826 48.9699 89.9858 48.9699 85.6891 48.9699C71.1804 48.9699 63.0231 48.2415 48.4509 48.2415C37.6337 48.2415 26.5219 49.1629 15.7138 48.6285C12.9126 48.49 10.2677 47.868 7.42724 47.8318C3.34298 47.7799 3.94274 47.5637 3.02819 45.7833C-0.744923 38.4378 1.90285 29.8231 1.90285 22.3388C1.90285 16.3284 2.82358 10.4202 2.82358 4.40255" stroke="#373737" stroke-linecap="round" stroke-linejoin="round"/>
</svg>
