<svg viewBox="0 0 327 52" fill="none" xmlns="http://www.w3.org/2000/svg">
<path d="M294.489 2.28281H325.574V18.3196C325.574 22.1537 326.62 26.3357 325.434 30.1202C324.164 34.1759 324.318 38.1887 324.318 42.2907C324.318 44.8075 326.305 50.0906 318.526 50.0906H258.379C243.872 50.0906 229.582 50.0689 215.118 49.5526C207.222 49.2708 199.394 49.595 191.534 49.7712C185.378 49.9091 179.353 50.9557 173.253 50.9983C166.945 51.0424 160.966 50.211 154.727 50.1074C149.308 50.0173 143.857 50.0906 138.434 50.0906C118.642 50.0906 98.9219 50.2997 79.1943 50.6957C64.8039 50.9846 50.3782 50.9983 35.9331 50.9983C27.7264 50.9983 19.9998 50.1577 12.0697 49.1156C8.81085 48.6874 2.16147 48.8413 2.16147 46.9135C2.16147 45.3935 1.53348 43.9271 1.53348 42.3916V32.2383C1.53348 29.3309 0.145264 25.4956 1.84747 22.707C2.93109 20.9318 2.16147 18.6456 2.16147 16.8067C2.16147 15.2334 2.78946 13.7028 2.78946 12.0999C2.78946 9.81167 3.69415 8.00465 4.53387 5.7793C4.93097 4.72702 4.41895 2.88797 7.49933 2.88797C10.2074 2.88797 13.9328 2.27039 16.6051 1.98023C20.9215 1.51155 25.9568 1.37507 30.3859 1.37507H48.0044C63.4356 1.37507 78.8675 1.09158 93.8124 3.34185C100.596 4.36331 108.795 3.79572 115.862 3.79572C124.585 3.79572 133.895 3.76582 142.551 3.19055C148.71 2.78122 154.655 2.02135 160.902 1.74489C169.18 1.37861 177.499 1.07249 185.812 1.07249H216.27C234.725 1.07249 253.016 0.657799 271.497 1.81213C278.923 2.2759 286.982 2.28281 294.489 2.28281Z" fill="#373737" stroke="#373737" stroke-linecap="round" stroke-linejoin="round"/>
</svg>
